<mxfile host="app.diagrams.net" modified="2023-09-29T00:10:24.370Z" agent="Mozilla/5.0 (Windows NT 10.0; Win64; x64) AppleWebKit/537.36 (KHTML, like Gecko) Chrome/117.0.0.0 Safari/537.36" etag="zkGndNZaBm7_1IGqkalP" version="21.8.1" type="device">
  <diagram name="Page-1" id="JAk6u4EgXhzqK2jQeSLm">
    <mxGraphModel dx="1259" dy="1802" grid="1" gridSize="10" guides="1" tooltips="1" connect="1" arrows="1" fold="1" page="1" pageScale="1" pageWidth="850" pageHeight="1100" math="0" shadow="0">
      <root>
        <mxCell id="0" />
        <mxCell id="1" parent="0" />
        <mxCell id="MTBR5_f7aD7VMJj0W0ZR-6" style="edgeStyle=orthogonalEdgeStyle;rounded=0;orthogonalLoop=1;jettySize=auto;html=1;strokeColor=#0000ff;" edge="1" parent="1" source="MTBR5_f7aD7VMJj0W0ZR-1" target="MTBR5_f7aD7VMJj0W0ZR-2">
          <mxGeometry relative="1" as="geometry" />
        </mxCell>
        <mxCell id="MTBR5_f7aD7VMJj0W0ZR-1" value="&lt;font style=&quot;font-size: 14px;&quot;&gt;&lt;b&gt;Knowledge Base(Amazon S3)&lt;/b&gt;&lt;/font&gt;" style="sketch=0;points=[[0,0,0],[0.25,0,0],[0.5,0,0],[0.75,0,0],[1,0,0],[0,1,0],[0.25,1,0],[0.5,1,0],[0.75,1,0],[1,1,0],[0,0.25,0],[0,0.5,0],[0,0.75,0],[1,0.25,0],[1,0.5,0],[1,0.75,0]];outlineConnect=0;fontColor=#232F3E;fillColor=#7AA116;strokeColor=#ffffff;dashed=0;verticalLabelPosition=bottom;verticalAlign=top;align=center;html=1;fontSize=12;fontStyle=0;aspect=fixed;shape=mxgraph.aws4.resourceIcon;resIcon=mxgraph.aws4.s3;" vertex="1" parent="1">
          <mxGeometry x="400" y="241" width="78" height="78" as="geometry" />
        </mxCell>
        <mxCell id="MTBR5_f7aD7VMJj0W0ZR-7" style="edgeStyle=orthogonalEdgeStyle;rounded=0;orthogonalLoop=1;jettySize=auto;html=1;exitX=0.5;exitY=0;exitDx=0;exitDy=0;strokeColor=#0000ff;" edge="1" parent="1" source="MTBR5_f7aD7VMJj0W0ZR-2" target="MTBR5_f7aD7VMJj0W0ZR-3">
          <mxGeometry relative="1" as="geometry" />
        </mxCell>
        <mxCell id="MTBR5_f7aD7VMJj0W0ZR-2" value="Knowledge Base AgentÂ &#xa;(Amazon Bedrock)" style="shape=image;verticalLabelPosition=bottom;labelBackgroundColor=default;verticalAlign=top;aspect=fixed;imageAspect=0;image=data:image/png,iVBORw0KGgoAAAANSUhEUgAAAFAAAABQCAIAAAABc2X6AAAAAXNSR0IArs4c6QAAAERlWElmTU0AKgAAAAgAAYdpAAQAAAABAAAAGgAAAAAAA6ABAAMAAAABAAEAAKACAAQAAAABAAAAUKADAAQAAAABAAAAUAAAAAAx4ExPAAAdn0lEQVR4AaVbB5hV1bW+d2ZEYWjSpTcpFmDAAoiAKAL22DWaYizBEmvM0xh9xoImL8/EPMVEo0aNMcYWK1joTZSqCChVigyiAtIUmXl/WfvcO0S/mPf2Hc7Ze61//avsffY5586Q7/Hbn+fU8vl8Dv944rlaR2hC5GE2CDlM+EEjh44ZRB2S4RM8u5FQTlMjAk9Bzt6p4oiaRO9RWFJuXXKgUYITZQcFfFl1NcgLVtXVVRgRmLxmAAEJRjMlVQzNMp4plwE6VFZXK9Ri/mAgicXkAAwl5idxpRjktSAVnWjBn6GzgEzhmHjM50uEEr96GNMMR7YqZEunFLGHCKyNsXHS2CCAoZbMdqIgExpjx6kKn0QnO+oksDmDzSTsVFVVmZ88KI+iKSqKWGFDc+PRtwVFUXHaisCoMqrUYMIyV8WcAJNVHR34xhFNjHDPmcQRVolAeI6BLEFu2WozMx0zapqpn/DyS5I048IVz7D6gJXQHfmVvfEUKFTQKyjHA5MqTa+1dEurfL5MtSEWjdK0ZmhtaqUIUjEToA6dQFTAM2TSpIqQOAQRQz6HGSsxpForWHgZOm4FrSIqOk2N8HTEAOwOFlSJFhLbRocIJ6KIoRU/D4qb13C+pEQDOgnHipQAObEJmGQF38bTfYZHIhEFYSQqIYwfVxpi41nIVIlCNDmUoiT4NZNkEX8NvKaRsGJ8CoPJKivzy7kmFgZoSiB8YITQHX0ccT3LWEcwwLwmgFelAtZR16eHKlPAKclosw6EcT0zkGiiNx7h2JuGXGg5XFOZN7mJgGCc0WYd1ijwyAuA9FNVHbs0fWoV2TksWS1xscxYijip1LAVhlr+A0bhuX42pGPby7FwxrIbeEkzPMkzj/RrdohIljEEvgrXJw3knXOYolJAPigdTIrWl/FQYNeWkTGg40ZNEf2guWOtSyYZxfoHCDb2gNXEo0rc81PLSIvwicQYbMrumIf5kN6GXxNPuHYgRCv/LD7OKnSFi07Dam5aZoaOZYvLxua2IRl61Mo7wvJZRSwwkr0IAbyHshaJHKR8wJIA2s6IV7jFHcbG9SVzRsEc0FB9HKNi7EDOzYKxiYS1o9jXsJgBw5UPLX8IpNoVDQHHXJxU60djdWkgvNh1YPRoZE3N+DTaDc8hOKIcAlEiLo5ozMa46VMah0MYxsEQ/WRh0wzPTiJFeqkkNiaPvcSR6LRd0Lea1hJwXIEJR/8uFlc+5sSEwnutFuOBTbZm4AaJxtC5PyXmUEouQrkRUirRo8fLROY8oiU5exzzugh5tqQ5kVoEhcWjFUvbjEKriHTwLjz6mtFq7rqUaAU58H6tO1188BHltfactPL9cSsWvbd+Le2SGYJQl07JiCYGr0FuJVBb4RXmtWMXxsvOeNgCHzyiKvTthmNi8l1GXV1SolzDP5NCEHiscU+DBPBVC0RWDHRoQDAawFC1bdD4in5DD2+3L4epVW7dPG75ImS+cMNH8pzwMoYV7+RsdK2Th+KXl+CXLwActg0YT5hHh+ySFHcI7jLqKl3rqDdbeHLP1IkrZLDRgwrRwIeWXTTM53m9B57d89A9Skq3fvnFn+ZMfqdyzZEdux/RoVvz8vpE5HLrkfmKxeNXLH5vw1p4UL72yy4AyBzzIXrL5Ui2ySOvRGElMF4Wjkdh0YBqHAsVxAzffpWRdlGTCLwsBFWyCYpCCQoARHlM1x4/6Te0SZ26CPeFRXPvnTn+0x1b7RLa/Zu1QuZDijKfs+7Dy8Y8oZDpAOTk90RH5rhrOgDFmKWYcnDMDhC2NiWURGw+m9Yr2i8PvEih1ZEgNK15SNnHARcV7UUBHQwwjGiqcwc0b/XTgSMObN6a6Fzu+08/sPDjtQW8nqveXb9mwcdrfz/zDWbeofuZ+x9c0aItvZifTwhsJM/nmtauO7L3wF7NSDhv/eo/zp/68bYt0BiLOLQFEM72T/EoGSmUCHDGQ5Teh7kUZIukQcuZIzmpIWGZ/YiCPltylWtUu85l/YaeuF8FkBu2fd6kTj1o31u/hj6IrYEHFYTvVq5ZsH4tEiYPIQQajy5yaFqn3oPHnlu/1l5Qog1p1/XgfdqdP+YvG7ZjvZASH+LVMyZmIshCJtbwIH4Go/dhmaIGsb9D7KlFJCnqYAfEkurq0nzJub36P3/uFSft1/urXVUPz55y0qN325UgYinCqxv5G0ZEsNGj/hF1ce+ByPbNtctPffb+0567/821K+rV2uuingN2Z2B0bGTj+Vu9Pxe9D6veMPfdgB2/taDjcmISYw3RxQOnnFfRsh06E5cv+s3kMas2fVqs/TbvzxGnlg/vaom+V/M2UP16xmsfb9+CCfrNm68/+Z3ze2p5My9dTQBw+WnGkTG6lEQF1Qfs696fuaRRKdoSrRNwLDivaTOKyU9nBNAin3e2Fz/352kfLiFABOywsepA4QAGdQRIsZIha4LJG3p0WEoqUmDRYSNyLhDCSvHQMhg8GYyHH4ftCHUUnRxRJZ/cGwnWQGdQsYk0XsowokRhqMOkxZObsuJ9ohPeQuHddWTCI1wFmuHlIrAQOgx0Zq37EKqfHjq0WXm9JrXrXn3IkRjOrlxFrqJGvDPXHEBjfsOgYofPfIre/Ni0lLnngTXghMRkpG0zigF79jRjCo6UbPQEq3hlC5kURXjH5BlEBJpDQ0Wv+qoHqj/MnlzRok3fVh2eOvlCYz7bse3+uVPoPWxED56Ih3wIg1LGz/DSNcV8bcbwsWL81RrQYQAbd4EDgBVK80yBlMVgOknO1OeQ+58G1bm3R9709sgbMaTEnGIx1jg7DElV9ZrNn1300l/GLl1gydhl740c8/jazzdl8cS82YOo6VEeIkB6Ygt+vvMyEfzE7T5T0zCQEQaArquTpzrYhCNXwYC91LKsJbAdOPmgnyA8Oyaci9+fP9qy8ZYpLxt229SXP9qySdEEieX/t/fn9I0H8sRiQlMEvjwK0WjFxDKE02z9AOG9BKKi1cZiap1nqTkrgoR3xAV+9uhfs0Amlj0RpopAmgD/j/fnuC2ZP8JyDo6MMcZXdojIFwbDzaLR17daBdxF8XsMPGknJfMmWAlkl5k6FnN643kwYMo7lIWTpoNg2OKTlYMSoDwVGMjChTMMWn6VmAwQjzYtmOmWRWhYhTOaudwKk+4YfWHTYkqRFE3IoDc7U+EYRLTCLhjf+2f1ghYrHz6I1z2MkqqqkhIg+VaMJnekTnHDHwPAifFgtgMPFmj4Y7+MTGGDxGfI+XQuTp/lQYeizMVBvyoGD9ElECM1Kov6RBTVLvUzRFjZBJb8MV5HXs8JCyi6WFw6Uxo9IpMRqpwpjBcluzXtyrBXYHopZQWh1izioMmRhH100oMLX0oGdepGB7ncwA5dJy1fxLnREwLxLKfweENq3lIoHMhMrScmSWdedEPqfuM541SITJH8OV4LmYrhZ9mTiRjEAQBV6hjPa1hBRqByK/MElSSJc9Wdmza//siTDuvQxfLRp/xw2or375jw4rJP1jMduqGmVmnZJf2P+n7vw9Cfv24Vd/hURBt+y+O0VUtRKxaf8SgNO8AgKZi96OjdHWAgVGmyEjshJMyOahBVykKBEJeHWXBssFedywcOO7N3f7w2bN6x/Z6pr8EMWfVv3+XZ713x5Lw375n++ka80OTyB7Zoc8uwUzs2aoqV+dCsyffOeMMB0IGqm7k4aPTNiV83yFQUC3klI0mGzCMa16Ny0XbA2L3uoGR6QoLcqRJvIbYPblJ0610acq0TfpEUa47aFFxZSel3+xx22cDhDfaqvauq6i9zpt49eeymHduQwPMLZl024OgzevY9q6Lfsd17jZ7xRtPy+j84aAB+b7Ls0/U3vPr0gso19ON15SnyjEloD8xB78MqORURD9SaM2QioWwEMh7RciY1/0qvMD3Ec+KpYyF0NwE8vQ+jqwZPwaqTi/TYORf3adMRginLFt/++nNLPqlkvXX3+Wzb1lteffbxOdOvG3L8Ye27/GzwcYBhYh98a+I909/4ctdXjEnZio+JZVklCT3KEc7h3VYMxjELCiLKFWKr+ntfWHF4nxZtd1VXz6lcdd+cyRu2b6F9UfwMkvnyQ371mDAHGLGDH/4GDE1QWkPrbC/42/3jl7xnr7yTMHIT5ZduqLzg7w8M6tgdlzRsz3589LuVqzUtwRBxwAVfxYoa9PKusjgkesziRj9DWwhJi/IGo4ef3ah2uVVHte92SMv257346MfbP4dWa5fOM3wwiF6/4GMIEYZA6GMJSIKxO7nc+A8WZM4Hd97vxqNPphmxqlZV9cRlC039zkerZFa0dokiIXcv4Y2UJeW460jPJSrSOJInNZpjhVRXXVAxANnOWLP85KfuO/mpP6CDLwxG9j6cnATrYHfAi9piVKFMUfCAUgKjgrrAupgpJQ8amXK5zk1a3HD0SQM68rb06uL5M1YuwW0KLkBA+2gQiISrSoasPCU4AmIqdGZfcnMy+bfPd057BV90gfBX08c+c+qP8bUBq4mbD0PmEmRMclfwWM3XQy1LhQq1QkFMFiKDCBE2DWuXXzn4mLP6cJfGjnXPlFffWrWMtAXbCFqJ6/buZL/u98//dn7/ZKBVa/ex8lxcRu9Us7rK1r9/9n040svylKXeh4vmbdylN+DOhF36sVlTfjdpDO5A4GGNeERmVdnNuV+7ztNXfhCxeGJxuasMrmlW+Irf30gS7X9MgCsCASc9zu5SSKlH/zn4hGGd9r+237A7p42B5Np+R0OLL33pwnOWftsWlYA6Lauy7E4roQGyw5gvJYUZRraTly669dVnlmyotGMfkWvzeg2vP+rE4d16iiT3p9MvGLN4/p0TXqzkS6wWgNiYkFpWenRAwqWIE5TZghEyomEgcbEZ/8dZkw5u2b5v647Pnn6xCTd/sePetycybk+v5hiq4KcXFgwS34dtRXfKteCaUaSIf/T4fdilAVVoNAG6tKT0/L6DLxlwdO09am3f+eW9fBrJXdx/6PCuPQZ17DZ6+hsPvz0Zi0Lxi52+Szy0V8eEfhQ3pQY/St8Vr7FA1n6+8cIXH7mozyCkDfLZ61aNnjVhPa5nVUzhCa8VAxIX2u8YcR/msuSPE4w5ob2LptDGvf8u1KGLwuT7t9/3miN4731l4bw73vjHOkxpPvfCgjn/MeSE4d16XDVwxMLKNdNWfkAeT2Ja4Vm27MiTfFvMCZKYEcnWcu9E7K/e9NmN4/+h3NIEYG44LsLHzgUxqkklqNIMKwFTy7FWmrNiONGyFc7wVY5JSxf+eeakcUsWTF/xAUFwmCtZt3njFc890r9Dl8Gduk9Z/r7CiPnS2izEDY/6TVXwc0oRHZrOKR4uMoYLqbbhQMd82EBGLCsJhOdsoa8SKFzha2xargFNnWN4pQCN7kkmoqL351tefQZaZkU7huXZxEsFq5CmFHJqC8mSc/4Vt/H0r9rM1cuuGfvk9p07sb2x6Cl/O/Vaxa6pB2zlDMJYGpwX/Cgwhpd+86DaFPwiOhBjnP6xS0N9mDJ70oYRJakrBTGyJk5dATJUQn+b8yGtO147YITdAw/f/LFHHeP92RK5/6b3Z13DSBwfMmgOFQKKx+JAkkIc0uUAXMYY8i4CIa8IaGmKn16t22OX/tW4FwjwrGoVAIhnAcUAAz9IV/drG786PvCu6+HNE8WjPlmHgeRznRo1e/S0C4/r2nPW2pUvLp5nPFwD5lsM8YxH0boXnPBIIQA4+324tLxfRRiYCQPGRwsLcBzYuXvLho1O6nEwHqrfXbvq0218TEcTMr9nWdk1Q44fdfyZB7XpuGDd6uWffmwGVYJx6B/LBnnzeg3w5ojNjPa5HLZxJlnki1ImEHhoN+7Y9vHWLYM7dOvbpmO3Ji2uG3jsmQce0q3JPviN3NadXxCucsrOzsDHDsSJ2EMyl5b37+U5yQwE5QFmnN987qm5b27avq2idYeuzVueffCAJuV1565ZiSsKiF6t2j90zsihXXsA+cCMcX+bPX2XvotKLpmOqHJlJWXnHTLotyee261ZS9zA9igthfzeaa9RrUWBM5oMOSceOJfFG9a1adioe9OWHfZuivrW2aNW50bNjuvaY8wH727b+SVnN2XGgGmT6sXwKQjC6pwSpjBEmSVhaogYq2LWquVPzJpap9aePVq1q2jT4aw+h325a+ewbr3uPOHsJuX18ChywRN/fGbeTGQLBjSudp6VcD6HLwnuO/U8vDAjz7GL54985uEfHMRnfXxnoGA5pYyMJo5QhhboOGzfA7C2p3645MfPP/L4/Bkd9m7SuXHzxnXqjl+xKOKMGtEwSJhXotBsQ569D0PDSjHQogYEJFTk859t3XLDC399ZObEm0achkV+4/BTAcR9f/SU13474WW/+gYeX77q+RmWLeo3vG7oiSP0EIavgW59/Tlu3XqWtB/Ro9xf//vndNnnsG8Bf9uEFyq3bEZqt0188aVzr+jTsp3MVTQkAH+MNRLAGfFIyg6VuA/jXwxQA/bjMQjoAhewZKHN+5Vrz/nz3UO6HvjwOXysO/mB38xbsxIMrK8M1GN3j9Ky8w4dfOnh8RB2z5TXHnprohY8LxW3BVffEb2ap8nLF1/6/KNgyd6fd+76ihBEoIOnU33HH4z2TmRR/Fn4EBbuw6oN51Ngj1AefsCix10XjKpxi98xbO7qFfbtN7MsZ6zhm0ac0qlxc8DwEDZKD2FC4hAuzPC1x8M7dEUk9mv+t9esGN7lwJ8PPv7WCS9Aft1APt7NWrtCZLx8WAutx4yQ5syHs8i7t8LHDAPAf1IXvSHZDyc2WtTC1EkoW5eJ0waSFvUa3jDsO8fsVwHI0k8qfznm6akr+LClvQAA3qZYRrX9fn0tzlR6CQn3zlWjrHXO6KNz19Sx/dp2Pqzdvq98/yprN3+x/XfTX5NSAgUmKpedQg6dIAvCALmkfYOy2lKwAIo+milCCwsXPgIOFuNLS0ou6D/kskEjsIti8/yfSWMfnDHhq+pd4VVJacUwFDc8HiT+wvtz6BheIXRcuqf/9Z4rDxt2UKv2kGPC757+Ov4CCmBehpo3x2xz3vztjHNGIv/9tpY0i+BZ4gw4SaxhhgK0ChO+kS1/CZJFSXINcazq36Hbz446EZKX35tz69hn8CLBHPXLjQhFOzedMQg2dbLiKY6kA60ADIzmVVV42bxu7N8prPn+nAJQoDDHOd6HETXTRoz6x2PapdFFUzGiLorJHHxMBYdCqfn+HFS6hnKTlix8cMZ4PI3hy02iESXLQdugdzJMJSQua7yTWEaXbAgjM3TOFEbyqhzwhQVD4yBgxxElvEpgrRaDXWhu+QiqIajJLic46ByheOgjYrUUZmi/fOWpKUt1Y8QYVDUbAH5CZ6SpARiBVlW3rt9o1DFnWDNq+Okt6zfkr+aEJbtc+QiMXRfqo/ThweSC0zLh4RoqfolnKdY0lwp8J4QKpZw5V1rhBpMF/9SK8dHnvHBbEldCusYgEn/x1JEG4urqtns3/ut3L2lcXtfMx+9XgZftc564b/XGT0VJccQmFpKlOHwWLK5NkRR2RyC14qr1LbRSNl0wum44QqXdSzlCmXmIDiTwjkCciaR2ya7n89B2na8/+jvF/BmPHcAcP1cOHIFsJy1bdMR9tx/xh9txK8aD1E/6D6WhMqN7IJ0n6GnEgPhDbxqqpwOzRWN4qWHI3+jQSsqg8NhyKLl0yKADTbMO+oP33U9aUkjOoxrHe9cp/9UJ3338e5f9qO8Rgzp1t22oyQQuwrw4D23bCYKbxj6N7w8qN2+6aSxfs1Es4zMrLHL0aaqjOlyrWswUsrkIuqaI1nVKcfwlXpExRC6JwoA9BAxLkakrNhi/hW+kc7nHfnj5Q9+7pH2jZozaSKLZO7nnoW9c+ovTKvru3LXrv8e/NHXZ4tBIXXQQe66aX33RjkMFR54QSpSZU60WeM+WBjyg6Q9xeFIs1AdnrnTPgw8AgNeDNlXBieSYQlrjrGO6ZqR7evb0z3ds792uY/cWrc89dGB5rb3mrFqOJ2rYdmzSbPQZF5zf/0h8szdt2eIfPj761YXztWdEBKC7fBDfEO+eNMa+cDxgnzZdmu7TsXGzt1ctq7vnnr8cfkq7vZtMWLrwtfffIUYNJmgMTEfTOU7GyvSUorSG1cBjhde/+MxQ6CRjCxIrjP2sn+H0BQDV+Xyzeg2uG37yGX36Q7n+802jxj7bqmHjnwweUaus7JOtW24b+/TTc2dmdOrEYekvfodQ9r3tyiygfeo3fP5H1zSoXQcSN3zdf9LDd63fsjlSVNaeCgBMy843//128shqxKf+yDPEEzUrEAFbSJl/fo7SKUcfhPcDQD7fs3X7W084q09bvtCgYbk9OXv6bWOe2Rh/L52oeBfIV7Rud8z+vXFVA9nplsvlJwB4LL32yON9Mc/8cOl/TXyZTy9yRUs8UXG5KQDPgdOmyqAiQEGYqZhAfGuJK5DvJZhx7cm01yXJ8IWPZ0DxKqX4xsz4eatXnDD6jlMr+v58xCmYcwJyuVK94pNBywzfHxy7f+9j96/Yp8HeEube1C7gPp9nSkrWbdl49T8ek0fnAHq6R9Nq5ZWGhgO2Lqqs1QXKSFwOb+SxtIVnNsLDoN6PT48yZfYe6xiLmd7RbIwT+/5HURG+7p57XT7k2AsHHIV3wy1f7Lhr/EuzVy3Di8SxB/RpmfL8aNNnLy+c+9KC2fPWfOgEwMD3ZzXRQozppCOSU60OdAqCiuw11hKr2Md9KGA625BdMuFT96LTCsbkMYJWdCZrdbKACIJE5uoLAzTXvFr7xs1uPu70o7r1ICy1tchzwZyXFsyZu2YFZKIPAw1pSQbJHBuPClSsJOJQlpQQG7tZqABQmaStgc/+eIwJmybzsbux3egYXmjgcvCYwrKUYVh7RNcDfjHiVMz5ywtmYz7nrF6ZakIActNzXfDaaYG2QE9PIddk2MBeCnjGkWCQZuEFTzpBUX7haUXOcA0rjGRgy2AyYw0Vr/kCJvVDUgO/ezSO20jnlEUcyeBkUCHPAgk0KWycgyydqSI0lT7Fw7Peh9MbOQTYtwDFMyES171dKXlqtFHj8kdJCBOnOnAQux2GiZ0euURjI4wYdsenXRe0NNSa5iJRR+e4dSs2oDJ+Rgi/jFe3JbgiPu21xmPMdNR85tVoEI58BAuOgqXRlgeS4RAQQ/rQd0AUUyG9AHp4AsyhwYENdURfD7rE80eN70boGJYeCTGCUHgGD61+ZGCkCstxGnIbJ63Gxfjd34dlQVhxAxEKxgLG1KKnxhNvBvi4fnTB+f+m92fbASV4+v1z4lce3/D+nCwZCZ5iHQ6DcFYMRB+KWDICUoeFwxgC/b20q2Jc0UssiMylMtnYEfGIpvXzb70/gzEe/OkaUaUZJnuRa9FTxjVnZwSjGRjJ+5VAIlsQ8a/enzHDBQvUAHUwrymcs4U8Rq4UY+ANroBXCRANkf/0/kw5NUzD5Kw4ifgBs2cgdJSrCUOIWtiKhXg0GAQn8bACRpRS2pc8UcsZDvfKG1gNfQyV6EKuoirrGvhAwpbuXTL0gs2eGZsa49TcJnWGj/dn6mkTeHdiKAdQ8Cf9sZPdQkNCb0MikDcWjiP9QKIv8bwnp50ZOhaDGG026KVJc6FhFnPiC5hqfigHOTYXWLMnZ4obhNI6NwFg5WCcHG0iOCKLnnPpPjX7hYWmSzNpfq8RHAurkDb0i0WOUwqAf73J5F2Y8A0knFJEQZxw1kilhZp8aqwNDXi5hVgm7hNJeQEvtK5mmsU/EtiKIvTlrcioiEE4YaiXWRhnZKZL5qRTg95/L40OKiNjnJQBayIJPLM8KJOqDhkaJSJ1tgiS+DAQnrNdwqJBqPmPCAUyAzQIg7a6sMgZQy1Cjug8GBK7fUHleBCGHpUYN4qu6BUy7tJcZJArWsaD7V3/JR4U5KaOajeM/F1KEglQPGA0HPOfItyNA2oqZcLpRwtunqjLBAZySAjOQrOvpo5ESZLEMqmJF9i1RLkzjsQUf3rI2aFxugLYTYXBf3rSJAvgq5cqDn1hKETNQxJW4beHcbkS6L9KJpyZZEG75DhCxlmSLhFTSM7d8EV/v20qhIm0bJWYlWfEzycCcGTL838BgvUT6T0QPZ0AAAAASUVORK5CYII=;fontSize=14;fontStyle=1" vertex="1" parent="1">
          <mxGeometry x="670" y="239" width="80" height="80" as="geometry" />
        </mxCell>
        <mxCell id="MTBR5_f7aD7VMJj0W0ZR-14" style="edgeStyle=orthogonalEdgeStyle;rounded=0;orthogonalLoop=1;jettySize=auto;html=1;" edge="1" parent="1">
          <mxGeometry relative="1" as="geometry">
            <mxPoint x="470" y="104" as="targetPoint" />
            <mxPoint x="671" y="104" as="sourcePoint" />
          </mxGeometry>
        </mxCell>
        <mxCell id="MTBR5_f7aD7VMJj0W0ZR-3" value="&lt;font style=&quot;font-size: 14px;&quot;&gt;&lt;b&gt;Vector DB (AOSS Index)&lt;/b&gt;&lt;/font&gt;" style="sketch=0;outlineConnect=0;fontColor=#232F3E;gradientColor=none;fillColor=#8C4FFF;strokeColor=none;dashed=0;verticalLabelPosition=bottom;verticalAlign=top;align=center;html=1;fontSize=12;fontStyle=0;aspect=fixed;pointerEvents=1;shape=mxgraph.aws4.opensearch_service_index;" vertex="1" parent="1">
          <mxGeometry x="671" y="40" width="78" height="78" as="geometry" />
        </mxCell>
        <mxCell id="MTBR5_f7aD7VMJj0W0ZR-15" style="edgeStyle=orthogonalEdgeStyle;rounded=0;orthogonalLoop=1;jettySize=auto;html=1;" edge="1" parent="1" target="MTBR5_f7aD7VMJj0W0ZR-3">
          <mxGeometry relative="1" as="geometry">
            <mxPoint x="470" y="79" as="sourcePoint" />
          </mxGeometry>
        </mxCell>
        <mxCell id="MTBR5_f7aD7VMJj0W0ZR-16" style="edgeStyle=orthogonalEdgeStyle;rounded=0;orthogonalLoop=1;jettySize=auto;html=1;" edge="1" parent="1" target="MTBR5_f7aD7VMJj0W0ZR-5">
          <mxGeometry relative="1" as="geometry">
            <mxPoint x="434" y="30" as="sourcePoint" />
          </mxGeometry>
        </mxCell>
        <mxCell id="MTBR5_f7aD7VMJj0W0ZR-4" value="&lt;font style=&quot;font-size: 14px;&quot;&gt;&lt;b&gt;RAG Notebook&lt;br&gt;(Amazon SageMaker)&lt;/b&gt;&lt;/font&gt;" style="sketch=0;outlineConnect=0;fontColor=#232F3E;gradientColor=none;fillColor=#01A88D;strokeColor=none;dashed=0;verticalLabelPosition=bottom;verticalAlign=top;align=center;html=1;fontSize=12;fontStyle=0;aspect=fixed;pointerEvents=1;shape=mxgraph.aws4.sagemaker_notebook;" vertex="1" parent="1">
          <mxGeometry x="390" y="38.53" width="78" height="89.47" as="geometry" />
        </mxCell>
        <mxCell id="MTBR5_f7aD7VMJj0W0ZR-18" style="edgeStyle=orthogonalEdgeStyle;rounded=0;orthogonalLoop=1;jettySize=auto;html=1;exitX=0.25;exitY=1;exitDx=0;exitDy=0;" edge="1" parent="1" source="MTBR5_f7aD7VMJj0W0ZR-5">
          <mxGeometry relative="1" as="geometry">
            <mxPoint x="414" y="30" as="targetPoint" />
          </mxGeometry>
        </mxCell>
        <mxCell id="MTBR5_f7aD7VMJj0W0ZR-5" value="" style="shape=image;verticalLabelPosition=bottom;labelBackgroundColor=default;verticalAlign=top;aspect=fixed;imageAspect=0;image=data:image/png,iVBORw0KGgoAAAANSUhEUgAAAFAAAABQCAIAAAABc2X6AAAAAXNSR0IArs4c6QAAAERlWElmTU0AKgAAAAgAAYdpAAQAAAABAAAAGgAAAAAAA6ABAAMAAAABAAEAAKACAAQAAAABAAAAUKADAAQAAAABAAAAUAAAAAAx4ExPAAAdn0lEQVR4AaVbB5hV1bW+d2ZEYWjSpTcpFmDAAoiAKAL22DWaYizBEmvM0xh9xoImL8/EPMVEo0aNMcYWK1joTZSqCChVigyiAtIUmXl/WfvcO0S/mPf2Hc7Ze61//avsffY5586Q7/Hbn+fU8vl8Dv944rlaR2hC5GE2CDlM+EEjh44ZRB2S4RM8u5FQTlMjAk9Bzt6p4oiaRO9RWFJuXXKgUYITZQcFfFl1NcgLVtXVVRgRmLxmAAEJRjMlVQzNMp4plwE6VFZXK9Ri/mAgicXkAAwl5idxpRjktSAVnWjBn6GzgEzhmHjM50uEEr96GNMMR7YqZEunFLGHCKyNsXHS2CCAoZbMdqIgExpjx6kKn0QnO+oksDmDzSTsVFVVmZ88KI+iKSqKWGFDc+PRtwVFUXHaisCoMqrUYMIyV8WcAJNVHR34xhFNjHDPmcQRVolAeI6BLEFu2WozMx0zapqpn/DyS5I048IVz7D6gJXQHfmVvfEUKFTQKyjHA5MqTa+1dEurfL5MtSEWjdK0ZmhtaqUIUjEToA6dQFTAM2TSpIqQOAQRQz6HGSsxpForWHgZOm4FrSIqOk2N8HTEAOwOFlSJFhLbRocIJ6KIoRU/D4qb13C+pEQDOgnHipQAObEJmGQF38bTfYZHIhEFYSQqIYwfVxpi41nIVIlCNDmUoiT4NZNkEX8NvKaRsGJ8CoPJKivzy7kmFgZoSiB8YITQHX0ccT3LWEcwwLwmgFelAtZR16eHKlPAKclosw6EcT0zkGiiNx7h2JuGXGg5XFOZN7mJgGCc0WYd1ijwyAuA9FNVHbs0fWoV2TksWS1xscxYijip1LAVhlr+A0bhuX42pGPby7FwxrIbeEkzPMkzj/RrdohIljEEvgrXJw3knXOYolJAPigdTIrWl/FQYNeWkTGg40ZNEf2guWOtSyYZxfoHCDb2gNXEo0rc81PLSIvwicQYbMrumIf5kN6GXxNPuHYgRCv/LD7OKnSFi07Dam5aZoaOZYvLxua2IRl61Mo7wvJZRSwwkr0IAbyHshaJHKR8wJIA2s6IV7jFHcbG9SVzRsEc0FB9HKNi7EDOzYKxiYS1o9jXsJgBw5UPLX8IpNoVDQHHXJxU60djdWkgvNh1YPRoZE3N+DTaDc8hOKIcAlEiLo5ozMa46VMah0MYxsEQ/WRh0wzPTiJFeqkkNiaPvcSR6LRd0Lea1hJwXIEJR/8uFlc+5sSEwnutFuOBTbZm4AaJxtC5PyXmUEouQrkRUirRo8fLROY8oiU5exzzugh5tqQ5kVoEhcWjFUvbjEKriHTwLjz6mtFq7rqUaAU58H6tO1188BHltfactPL9cSsWvbd+Le2SGYJQl07JiCYGr0FuJVBb4RXmtWMXxsvOeNgCHzyiKvTthmNi8l1GXV1SolzDP5NCEHiscU+DBPBVC0RWDHRoQDAawFC1bdD4in5DD2+3L4epVW7dPG75ImS+cMNH8pzwMoYV7+RsdK2Th+KXl+CXLwActg0YT5hHh+ySFHcI7jLqKl3rqDdbeHLP1IkrZLDRgwrRwIeWXTTM53m9B57d89A9Skq3fvnFn+ZMfqdyzZEdux/RoVvz8vpE5HLrkfmKxeNXLH5vw1p4UL72yy4AyBzzIXrL5Ui2ySOvRGElMF4Wjkdh0YBqHAsVxAzffpWRdlGTCLwsBFWyCYpCCQoARHlM1x4/6Te0SZ26CPeFRXPvnTn+0x1b7RLa/Zu1QuZDijKfs+7Dy8Y8oZDpAOTk90RH5rhrOgDFmKWYcnDMDhC2NiWURGw+m9Yr2i8PvEih1ZEgNK15SNnHARcV7UUBHQwwjGiqcwc0b/XTgSMObN6a6Fzu+08/sPDjtQW8nqveXb9mwcdrfz/zDWbeofuZ+x9c0aItvZifTwhsJM/nmtauO7L3wF7NSDhv/eo/zp/68bYt0BiLOLQFEM72T/EoGSmUCHDGQ5Teh7kUZIukQcuZIzmpIWGZ/YiCPltylWtUu85l/YaeuF8FkBu2fd6kTj1o31u/hj6IrYEHFYTvVq5ZsH4tEiYPIQQajy5yaFqn3oPHnlu/1l5Qog1p1/XgfdqdP+YvG7ZjvZASH+LVMyZmIshCJtbwIH4Go/dhmaIGsb9D7KlFJCnqYAfEkurq0nzJub36P3/uFSft1/urXVUPz55y0qN325UgYinCqxv5G0ZEsNGj/hF1ce+ByPbNtctPffb+0567/821K+rV2uuingN2Z2B0bGTj+Vu9Pxe9D6veMPfdgB2/taDjcmISYw3RxQOnnFfRsh06E5cv+s3kMas2fVqs/TbvzxGnlg/vaom+V/M2UP16xmsfb9+CCfrNm68/+Z3ze2p5My9dTQBw+WnGkTG6lEQF1Qfs696fuaRRKdoSrRNwLDivaTOKyU9nBNAin3e2Fz/352kfLiFABOywsepA4QAGdQRIsZIha4LJG3p0WEoqUmDRYSNyLhDCSvHQMhg8GYyHH4ftCHUUnRxRJZ/cGwnWQGdQsYk0XsowokRhqMOkxZObsuJ9ohPeQuHddWTCI1wFmuHlIrAQOgx0Zq37EKqfHjq0WXm9JrXrXn3IkRjOrlxFrqJGvDPXHEBjfsOgYofPfIre/Ni0lLnngTXghMRkpG0zigF79jRjCo6UbPQEq3hlC5kURXjH5BlEBJpDQ0Wv+qoHqj/MnlzRok3fVh2eOvlCYz7bse3+uVPoPWxED56Ih3wIg1LGz/DSNcV8bcbwsWL81RrQYQAbd4EDgBVK80yBlMVgOknO1OeQ+58G1bm3R9709sgbMaTEnGIx1jg7DElV9ZrNn1300l/GLl1gydhl740c8/jazzdl8cS82YOo6VEeIkB6Ygt+vvMyEfzE7T5T0zCQEQaArquTpzrYhCNXwYC91LKsJbAdOPmgnyA8Oyaci9+fP9qy8ZYpLxt229SXP9qySdEEieX/t/fn9I0H8sRiQlMEvjwK0WjFxDKE02z9AOG9BKKi1cZiap1nqTkrgoR3xAV+9uhfs0Amlj0RpopAmgD/j/fnuC2ZP8JyDo6MMcZXdojIFwbDzaLR17daBdxF8XsMPGknJfMmWAlkl5k6FnN643kwYMo7lIWTpoNg2OKTlYMSoDwVGMjChTMMWn6VmAwQjzYtmOmWRWhYhTOaudwKk+4YfWHTYkqRFE3IoDc7U+EYRLTCLhjf+2f1ghYrHz6I1z2MkqqqkhIg+VaMJnekTnHDHwPAifFgtgMPFmj4Y7+MTGGDxGfI+XQuTp/lQYeizMVBvyoGD9ElECM1Kov6RBTVLvUzRFjZBJb8MV5HXs8JCyi6WFw6Uxo9IpMRqpwpjBcluzXtyrBXYHopZQWh1izioMmRhH100oMLX0oGdepGB7ncwA5dJy1fxLnREwLxLKfweENq3lIoHMhMrScmSWdedEPqfuM541SITJH8OV4LmYrhZ9mTiRjEAQBV6hjPa1hBRqByK/MElSSJc9Wdmza//siTDuvQxfLRp/xw2or375jw4rJP1jMduqGmVmnZJf2P+n7vw9Cfv24Vd/hURBt+y+O0VUtRKxaf8SgNO8AgKZi96OjdHWAgVGmyEjshJMyOahBVykKBEJeHWXBssFedywcOO7N3f7w2bN6x/Z6pr8EMWfVv3+XZ713x5Lw375n++ka80OTyB7Zoc8uwUzs2aoqV+dCsyffOeMMB0IGqm7k4aPTNiV83yFQUC3klI0mGzCMa16Ny0XbA2L3uoGR6QoLcqRJvIbYPblJ0610acq0TfpEUa47aFFxZSel3+xx22cDhDfaqvauq6i9zpt49eeymHduQwPMLZl024OgzevY9q6Lfsd17jZ7xRtPy+j84aAB+b7Ls0/U3vPr0gso19ON15SnyjEloD8xB78MqORURD9SaM2QioWwEMh7RciY1/0qvMD3Ec+KpYyF0NwE8vQ+jqwZPwaqTi/TYORf3adMRginLFt/++nNLPqlkvXX3+Wzb1lteffbxOdOvG3L8Ye27/GzwcYBhYh98a+I909/4ctdXjEnZio+JZVklCT3KEc7h3VYMxjELCiLKFWKr+ntfWHF4nxZtd1VXz6lcdd+cyRu2b6F9UfwMkvnyQ371mDAHGLGDH/4GDE1QWkPrbC/42/3jl7xnr7yTMHIT5ZduqLzg7w8M6tgdlzRsz3589LuVqzUtwRBxwAVfxYoa9PKusjgkesziRj9DWwhJi/IGo4ef3ah2uVVHte92SMv257346MfbP4dWa5fOM3wwiF6/4GMIEYZA6GMJSIKxO7nc+A8WZM4Hd97vxqNPphmxqlZV9cRlC039zkerZFa0dokiIXcv4Y2UJeW460jPJSrSOJInNZpjhVRXXVAxANnOWLP85KfuO/mpP6CDLwxG9j6cnATrYHfAi9piVKFMUfCAUgKjgrrAupgpJQ8amXK5zk1a3HD0SQM68rb06uL5M1YuwW0KLkBA+2gQiISrSoasPCU4AmIqdGZfcnMy+bfPd057BV90gfBX08c+c+qP8bUBq4mbD0PmEmRMclfwWM3XQy1LhQq1QkFMFiKDCBE2DWuXXzn4mLP6cJfGjnXPlFffWrWMtAXbCFqJ6/buZL/u98//dn7/ZKBVa/ex8lxcRu9Us7rK1r9/9n040svylKXeh4vmbdylN+DOhF36sVlTfjdpDO5A4GGNeERmVdnNuV+7ztNXfhCxeGJxuasMrmlW+Irf30gS7X9MgCsCASc9zu5SSKlH/zn4hGGd9r+237A7p42B5Np+R0OLL33pwnOWftsWlYA6Lauy7E4roQGyw5gvJYUZRraTly669dVnlmyotGMfkWvzeg2vP+rE4d16iiT3p9MvGLN4/p0TXqzkS6wWgNiYkFpWenRAwqWIE5TZghEyomEgcbEZ/8dZkw5u2b5v647Pnn6xCTd/sePetycybk+v5hiq4KcXFgwS34dtRXfKteCaUaSIf/T4fdilAVVoNAG6tKT0/L6DLxlwdO09am3f+eW9fBrJXdx/6PCuPQZ17DZ6+hsPvz0Zi0Lxi52+Szy0V8eEfhQ3pQY/St8Vr7FA1n6+8cIXH7mozyCkDfLZ61aNnjVhPa5nVUzhCa8VAxIX2u8YcR/msuSPE4w5ob2LptDGvf8u1KGLwuT7t9/3miN4731l4bw73vjHOkxpPvfCgjn/MeSE4d16XDVwxMLKNdNWfkAeT2Ja4Vm27MiTfFvMCZKYEcnWcu9E7K/e9NmN4/+h3NIEYG44LsLHzgUxqkklqNIMKwFTy7FWmrNiONGyFc7wVY5JSxf+eeakcUsWTF/xAUFwmCtZt3njFc890r9Dl8Gduk9Z/r7CiPnS2izEDY/6TVXwc0oRHZrOKR4uMoYLqbbhQMd82EBGLCsJhOdsoa8SKFzha2xargFNnWN4pQCN7kkmoqL351tefQZaZkU7huXZxEsFq5CmFHJqC8mSc/4Vt/H0r9rM1cuuGfvk9p07sb2x6Cl/O/Vaxa6pB2zlDMJYGpwX/Cgwhpd+86DaFPwiOhBjnP6xS0N9mDJ70oYRJakrBTGyJk5dATJUQn+b8yGtO147YITdAw/f/LFHHeP92RK5/6b3Z13DSBwfMmgOFQKKx+JAkkIc0uUAXMYY8i4CIa8IaGmKn16t22OX/tW4FwjwrGoVAIhnAcUAAz9IV/drG786PvCu6+HNE8WjPlmHgeRznRo1e/S0C4/r2nPW2pUvLp5nPFwD5lsM8YxH0boXnPBIIQA4+324tLxfRRiYCQPGRwsLcBzYuXvLho1O6nEwHqrfXbvq0218TEcTMr9nWdk1Q44fdfyZB7XpuGDd6uWffmwGVYJx6B/LBnnzeg3w5ojNjPa5HLZxJlnki1ImEHhoN+7Y9vHWLYM7dOvbpmO3Ji2uG3jsmQce0q3JPviN3NadXxCucsrOzsDHDsSJ2EMyl5b37+U5yQwE5QFmnN987qm5b27avq2idYeuzVueffCAJuV1565ZiSsKiF6t2j90zsihXXsA+cCMcX+bPX2XvotKLpmOqHJlJWXnHTLotyee261ZS9zA9igthfzeaa9RrUWBM5oMOSceOJfFG9a1adioe9OWHfZuivrW2aNW50bNjuvaY8wH727b+SVnN2XGgGmT6sXwKQjC6pwSpjBEmSVhaogYq2LWquVPzJpap9aePVq1q2jT4aw+h325a+ewbr3uPOHsJuX18ChywRN/fGbeTGQLBjSudp6VcD6HLwnuO/U8vDAjz7GL54985uEfHMRnfXxnoGA5pYyMJo5QhhboOGzfA7C2p3645MfPP/L4/Bkd9m7SuXHzxnXqjl+xKOKMGtEwSJhXotBsQ569D0PDSjHQogYEJFTk859t3XLDC399ZObEm0achkV+4/BTAcR9f/SU13474WW/+gYeX77q+RmWLeo3vG7oiSP0EIavgW59/Tlu3XqWtB/Ro9xf//vndNnnsG8Bf9uEFyq3bEZqt0188aVzr+jTsp3MVTQkAH+MNRLAGfFIyg6VuA/jXwxQA/bjMQjoAhewZKHN+5Vrz/nz3UO6HvjwOXysO/mB38xbsxIMrK8M1GN3j9Ky8w4dfOnh8RB2z5TXHnprohY8LxW3BVffEb2ap8nLF1/6/KNgyd6fd+76ihBEoIOnU33HH4z2TmRR/Fn4EBbuw6oN51Ngj1AefsCix10XjKpxi98xbO7qFfbtN7MsZ6zhm0ac0qlxc8DwEDZKD2FC4hAuzPC1x8M7dEUk9mv+t9esGN7lwJ8PPv7WCS9Aft1APt7NWrtCZLx8WAutx4yQ5syHs8i7t8LHDAPAf1IXvSHZDyc2WtTC1EkoW5eJ0waSFvUa3jDsO8fsVwHI0k8qfznm6akr+LClvQAA3qZYRrX9fn0tzlR6CQn3zlWjrHXO6KNz19Sx/dp2Pqzdvq98/yprN3+x/XfTX5NSAgUmKpedQg6dIAvCALmkfYOy2lKwAIo+milCCwsXPgIOFuNLS0ou6D/kskEjsIti8/yfSWMfnDHhq+pd4VVJacUwFDc8HiT+wvtz6BheIXRcuqf/9Z4rDxt2UKv2kGPC757+Ov4CCmBehpo3x2xz3vztjHNGIv/9tpY0i+BZ4gw4SaxhhgK0ChO+kS1/CZJFSXINcazq36Hbz446EZKX35tz69hn8CLBHPXLjQhFOzedMQg2dbLiKY6kA60ADIzmVVV42bxu7N8prPn+nAJQoDDHOd6HETXTRoz6x2PapdFFUzGiLorJHHxMBYdCqfn+HFS6hnKTlix8cMZ4PI3hy02iESXLQdugdzJMJSQua7yTWEaXbAgjM3TOFEbyqhzwhQVD4yBgxxElvEpgrRaDXWhu+QiqIajJLic46ByheOgjYrUUZmi/fOWpKUt1Y8QYVDUbAH5CZ6SpARiBVlW3rt9o1DFnWDNq+Okt6zfkr+aEJbtc+QiMXRfqo/ThweSC0zLh4RoqfolnKdY0lwp8J4QKpZw5V1rhBpMF/9SK8dHnvHBbEldCusYgEn/x1JEG4urqtns3/ut3L2lcXtfMx+9XgZftc564b/XGT0VJccQmFpKlOHwWLK5NkRR2RyC14qr1LbRSNl0wum44QqXdSzlCmXmIDiTwjkCciaR2ya7n89B2na8/+jvF/BmPHcAcP1cOHIFsJy1bdMR9tx/xh9txK8aD1E/6D6WhMqN7IJ0n6GnEgPhDbxqqpwOzRWN4qWHI3+jQSsqg8NhyKLl0yKADTbMO+oP33U9aUkjOoxrHe9cp/9UJ3338e5f9qO8Rgzp1t22oyQQuwrw4D23bCYKbxj6N7w8qN2+6aSxfs1Es4zMrLHL0aaqjOlyrWswUsrkIuqaI1nVKcfwlXpExRC6JwoA9BAxLkakrNhi/hW+kc7nHfnj5Q9+7pH2jZozaSKLZO7nnoW9c+ovTKvru3LXrv8e/NHXZ4tBIXXQQe66aX33RjkMFR54QSpSZU60WeM+WBjyg6Q9xeFIs1AdnrnTPgw8AgNeDNlXBieSYQlrjrGO6ZqR7evb0z3ds792uY/cWrc89dGB5rb3mrFqOJ2rYdmzSbPQZF5zf/0h8szdt2eIfPj761YXztWdEBKC7fBDfEO+eNMa+cDxgnzZdmu7TsXGzt1ctq7vnnr8cfkq7vZtMWLrwtfffIUYNJmgMTEfTOU7GyvSUorSG1cBjhde/+MxQ6CRjCxIrjP2sn+H0BQDV+Xyzeg2uG37yGX36Q7n+802jxj7bqmHjnwweUaus7JOtW24b+/TTc2dmdOrEYekvfodQ9r3tyiygfeo3fP5H1zSoXQcSN3zdf9LDd63fsjlSVNaeCgBMy843//128shqxKf+yDPEEzUrEAFbSJl/fo7SKUcfhPcDQD7fs3X7W084q09bvtCgYbk9OXv6bWOe2Rh/L52oeBfIV7Rud8z+vXFVA9nplsvlJwB4LL32yON9Mc/8cOl/TXyZTy9yRUs8UXG5KQDPgdOmyqAiQEGYqZhAfGuJK5DvJZhx7cm01yXJ8IWPZ0DxKqX4xsz4eatXnDD6jlMr+v58xCmYcwJyuVK94pNBywzfHxy7f+9j96/Yp8HeEube1C7gPp9nSkrWbdl49T8ek0fnAHq6R9Nq5ZWGhgO2Lqqs1QXKSFwOb+SxtIVnNsLDoN6PT48yZfYe6xiLmd7RbIwT+/5HURG+7p57XT7k2AsHHIV3wy1f7Lhr/EuzVy3Di8SxB/RpmfL8aNNnLy+c+9KC2fPWfOgEwMD3ZzXRQozppCOSU60OdAqCiuw11hKr2Md9KGA625BdMuFT96LTCsbkMYJWdCZrdbKACIJE5uoLAzTXvFr7xs1uPu70o7r1ICy1tchzwZyXFsyZu2YFZKIPAw1pSQbJHBuPClSsJOJQlpQQG7tZqABQmaStgc/+eIwJmybzsbux3egYXmjgcvCYwrKUYVh7RNcDfjHiVMz5ywtmYz7nrF6ZakIActNzXfDaaYG2QE9PIddk2MBeCnjGkWCQZuEFTzpBUX7haUXOcA0rjGRgy2AyYw0Vr/kCJvVDUgO/ezSO20jnlEUcyeBkUCHPAgk0KWycgyydqSI0lT7Fw7Peh9MbOQTYtwDFMyES171dKXlqtFHj8kdJCBOnOnAQux2GiZ0euURjI4wYdsenXRe0NNSa5iJRR+e4dSs2oDJ+Rgi/jFe3JbgiPu21xmPMdNR85tVoEI58BAuOgqXRlgeS4RAQQ/rQd0AUUyG9AHp4AsyhwYENdURfD7rE80eN70boGJYeCTGCUHgGD61+ZGCkCstxGnIbJ63Gxfjd34dlQVhxAxEKxgLG1KKnxhNvBvi4fnTB+f+m92fbASV4+v1z4lce3/D+nCwZCZ5iHQ6DcFYMRB+KWDICUoeFwxgC/b20q2Jc0UssiMylMtnYEfGIpvXzb70/gzEe/OkaUaUZJnuRa9FTxjVnZwSjGRjJ+5VAIlsQ8a/enzHDBQvUAHUwrymcs4U8Rq4UY+ANroBXCRANkf/0/kw5NUzD5Kw4ifgBs2cgdJSrCUOIWtiKhXg0GAQn8bACRpRS2pc8UcsZDvfKG1gNfQyV6EKuoirrGvhAwpbuXTL0gs2eGZsa49TcJnWGj/dn6mkTeHdiKAdQ8Cf9sZPdQkNCb0MikDcWjiP9QKIv8bwnp50ZOhaDGG026KVJc6FhFnPiC5hqfigHOTYXWLMnZ4obhNI6NwFg5WCcHG0iOCKLnnPpPjX7hYWmSzNpfq8RHAurkDb0i0WOUwqAf73J5F2Y8A0knFJEQZxw1kilhZp8aqwNDXi5hVgm7hNJeQEvtK5mmsU/EtiKIvTlrcioiEE4YaiXWRhnZKZL5qRTg95/L40OKiNjnJQBayIJPLM8KJOqDhkaJSJ1tgiS+DAQnrNdwqJBqPmPCAUyAzQIg7a6sMgZQy1Cjug8GBK7fUHleBCGHpUYN4qu6BUy7tJcZJArWsaD7V3/JR4U5KaOajeM/F1KEglQPGA0HPOfItyNA2oqZcLpRwtunqjLBAZySAjOQrOvpo5ESZLEMqmJF9i1RLkzjsQUf3rI2aFxugLYTYXBf3rSJAvgq5cqDn1hKETNQxJW4beHcbkS6L9KJpyZZEG75DhCxlmSLhFTSM7d8EV/v20qhIm0bJWYlWfEzycCcGTL838BgvUT6T0QPZ0AAAAASUVORK5CYII=;fontSize=14;fontStyle=1;align=center;" vertex="1" parent="1">
          <mxGeometry x="394" y="-160" width="80" height="80" as="geometry" />
        </mxCell>
        <mxCell id="MTBR5_f7aD7VMJj0W0ZR-19" value="&lt;font style=&quot;font-size: 14px;&quot;&gt;&lt;b&gt;LLMs&lt;/b&gt;&lt;span style=&quot;font-weight: 700; background-color: rgb(255, 255, 255);&quot;&gt;&amp;nbsp;(Amazon Bedrock)&amp;nbsp;&lt;/span&gt;&lt;/font&gt;" style="text;html=1;strokeColor=none;fillColor=none;align=center;verticalAlign=middle;whiteSpace=wrap;rounded=0;" vertex="1" parent="1">
          <mxGeometry x="385" y="-80" width="300" height="30" as="geometry" />
        </mxCell>
        <mxCell id="MTBR5_f7aD7VMJj0W0ZR-20" value="&lt;font style=&quot;font-size: 14px;&quot;&gt;&lt;b&gt;Prompt&lt;/b&gt;&lt;/font&gt;" style="text;html=1;strokeColor=none;fillColor=none;align=center;verticalAlign=middle;whiteSpace=wrap;rounded=0;" vertex="1" parent="1">
          <mxGeometry x="440" y="-20" width="60" height="30" as="geometry" />
        </mxCell>
        <mxCell id="MTBR5_f7aD7VMJj0W0ZR-21" value="&lt;font style=&quot;font-size: 14px;&quot;&gt;&lt;b&gt;Completion&lt;/b&gt;&lt;/font&gt;" style="text;html=1;strokeColor=none;fillColor=none;align=center;verticalAlign=middle;whiteSpace=wrap;rounded=0;" vertex="1" parent="1">
          <mxGeometry x="340" y="-50" width="60" height="30" as="geometry" />
        </mxCell>
        <mxCell id="MTBR5_f7aD7VMJj0W0ZR-22" value="&lt;font style=&quot;font-size: 14px;&quot;&gt;&lt;b&gt;Question (embeddings)&lt;/b&gt;&lt;/font&gt;" style="text;html=1;strokeColor=none;fillColor=none;align=center;verticalAlign=middle;whiteSpace=wrap;rounded=0;" vertex="1" parent="1">
          <mxGeometry x="540" y="40" width="60" height="30" as="geometry" />
        </mxCell>
        <mxCell id="MTBR5_f7aD7VMJj0W0ZR-23" value="&lt;font style=&quot;font-size: 14px;&quot;&gt;&lt;b&gt;Similar Documents&lt;/b&gt;&lt;/font&gt;" style="text;html=1;strokeColor=none;fillColor=none;align=center;verticalAlign=middle;whiteSpace=wrap;rounded=0;" vertex="1" parent="1">
          <mxGeometry x="530" y="110" width="60" height="30" as="geometry" />
        </mxCell>
        <mxCell id="MTBR5_f7aD7VMJj0W0ZR-24" value="&lt;font style=&quot;font-size: 14px;&quot;&gt;&lt;b&gt;Documents&lt;/b&gt;&lt;/font&gt;" style="text;html=1;strokeColor=none;fillColor=none;align=center;verticalAlign=middle;whiteSpace=wrap;rounded=0;" vertex="1" parent="1">
          <mxGeometry x="540" y="250" width="60" height="30" as="geometry" />
        </mxCell>
        <mxCell id="MTBR5_f7aD7VMJj0W0ZR-25" value="&lt;font style=&quot;font-size: 14px;&quot;&gt;&lt;b&gt;Embeddings&lt;/b&gt;&lt;/font&gt;" style="text;html=1;strokeColor=none;fillColor=none;align=center;verticalAlign=middle;whiteSpace=wrap;rounded=0;" vertex="1" parent="1">
          <mxGeometry x="730" y="170" width="60" height="30" as="geometry" />
        </mxCell>
        <mxCell id="MTBR5_f7aD7VMJj0W0ZR-26" value="&lt;b&gt;1&lt;/b&gt;" style="ellipse;whiteSpace=wrap;html=1;aspect=fixed;" vertex="1" parent="1">
          <mxGeometry x="500" y="38.53" width="20" height="20" as="geometry" />
        </mxCell>
        <mxCell id="MTBR5_f7aD7VMJj0W0ZR-28" value="&lt;b&gt;2&lt;/b&gt;" style="ellipse;whiteSpace=wrap;html=1;aspect=fixed;" vertex="1" parent="1">
          <mxGeometry x="500" y="110" width="20" height="20" as="geometry" />
        </mxCell>
        <mxCell id="MTBR5_f7aD7VMJj0W0ZR-29" value="&lt;b&gt;3&lt;/b&gt;" style="ellipse;whiteSpace=wrap;html=1;aspect=fixed;" vertex="1" parent="1">
          <mxGeometry x="447" y="-40" width="20" height="20" as="geometry" />
        </mxCell>
        <mxCell id="MTBR5_f7aD7VMJj0W0ZR-31" value="&lt;b&gt;4&lt;/b&gt;" style="ellipse;whiteSpace=wrap;html=1;aspect=fixed;" vertex="1" parent="1">
          <mxGeometry x="330" y="-70" width="20" height="20" as="geometry" />
        </mxCell>
        <mxCell id="MTBR5_f7aD7VMJj0W0ZR-32" value="" style="endArrow=none;html=1;rounded=0;strokeColor=#0000ff;" edge="1" parent="1">
          <mxGeometry width="50" height="50" relative="1" as="geometry">
            <mxPoint x="20" y="303" as="sourcePoint" />
            <mxPoint x="90" y="303" as="targetPoint" />
          </mxGeometry>
        </mxCell>
        <mxCell id="MTBR5_f7aD7VMJj0W0ZR-33" value="&lt;b&gt;Offline data ingestion&lt;/b&gt;" style="text;html=1;strokeColor=none;fillColor=none;align=center;verticalAlign=middle;whiteSpace=wrap;rounded=0;" vertex="1" parent="1">
          <mxGeometry x="88" y="289" width="153" height="30" as="geometry" />
        </mxCell>
        <mxCell id="MTBR5_f7aD7VMJj0W0ZR-34" value="" style="endArrow=none;html=1;rounded=0;" edge="1" parent="1">
          <mxGeometry width="50" height="50" relative="1" as="geometry">
            <mxPoint x="18" y="333" as="sourcePoint" />
            <mxPoint x="88" y="333" as="targetPoint" />
          </mxGeometry>
        </mxCell>
        <mxCell id="MTBR5_f7aD7VMJj0W0ZR-35" value="&lt;b&gt;Real-time user queries&lt;/b&gt;" style="text;html=1;strokeColor=none;fillColor=none;align=center;verticalAlign=middle;whiteSpace=wrap;rounded=0;" vertex="1" parent="1">
          <mxGeometry x="88" y="319" width="153" height="30" as="geometry" />
        </mxCell>
        <mxCell id="MTBR5_f7aD7VMJj0W0ZR-36" value="&lt;h1&gt;RAG with Amazon Bedrock Knowledge Base&lt;/h1&gt;&lt;p&gt;&lt;font style=&quot;font-size: 14px;&quot;&gt;Knowledge corpus is ingested into a vector database using Amazon Bedrock Knowledge Base Agent and then RAG approach is used work question answering.&lt;/font&gt;&lt;/p&gt;" style="text;html=1;strokeColor=none;fillColor=none;spacing=5;spacingTop=-20;whiteSpace=wrap;overflow=hidden;rounded=0;" vertex="1" parent="1">
          <mxGeometry x="50" y="-160" width="260" height="220" as="geometry" />
        </mxCell>
        <mxCell id="MTBR5_f7aD7VMJj0W0ZR-39" value="&lt;b&gt;AWS CloudFormation&lt;/b&gt;" style="outlineConnect=0;dashed=0;verticalLabelPosition=bottom;verticalAlign=top;align=center;html=1;shape=mxgraph.aws3.cloudformation;fillColor=#759C3E;gradientColor=none;" vertex="1" parent="1">
          <mxGeometry x="760" y="-180" width="70" height="86.5" as="geometry" />
        </mxCell>
        <mxCell id="MTBR5_f7aD7VMJj0W0ZR-40" value="&lt;b&gt;AWS IAM&lt;/b&gt;" style="sketch=0;outlineConnect=0;fontColor=#232F3E;gradientColor=none;fillColor=#DD344C;strokeColor=none;dashed=0;verticalLabelPosition=bottom;verticalAlign=top;align=center;html=1;fontSize=12;fontStyle=0;aspect=fixed;pointerEvents=1;shape=mxgraph.aws4.role;" vertex="1" parent="1">
          <mxGeometry x="640" y="-160" width="78" height="44" as="geometry" />
        </mxCell>
      </root>
    </mxGraphModel>
  </diagram>
</mxfile>
